<?xml version="1.0" standalone="no"?>
<!DOCTYPE svg PUBLIC "-//W3C//DTD SVG 20010904//EN"
 "http://www.w3.org/TR/2001/REC-SVG-20010904/DTD/svg10.dtd">
<svg version="1.0" xmlns="http://www.w3.org/2000/svg"
 width="922.000000pt" height="382.000000pt" viewBox="0 0 922.000000 382.000000"
 preserveAspectRatio="xMidYMid meet">
<metadata>
Created by potrace 1.15, written by Peter Selinger 2001-2017
</metadata>
<g transform="translate(0.000000,382.000000) scale(0.100000,-0.100000)"
fill="#000000" stroke="none">
<path d="M1650 3614 c-159 -20 -481 -90 -560 -122 -65 -26 -93 -95 -50 -125
20 -14 16 -21 -108 -218 -313 -494 -464 -789 -578 -1125 -49 -144 -50 -164
-13 -216 23 -31 67 -38 92 -14 7 8 35 76 61 153 69 199 144 379 226 545 40 79
78 152 85 161 24 33 374 107 510 107 93 0 128 22 123 78 -5 55 -30 64 -158 58
-58 -3 -156 -14 -219 -26 -63 -11 -120 -20 -128 -18 -24 5 242 429 321 513 26
27 47 36 123 54 155 36 291 52 415 50 137 -3 158 6 158 72 0 60 -29 73 -159
75 -58 1 -122 0 -141 -2z"/>
<path d="M5735 3589 c-244 -36 -538 -244 -663 -469 -46 -82 -65 -169 -60 -272
4 -77 9 -96 45 -170 23 -46 76 -137 119 -203 109 -170 127 -209 132 -276 3
-45 -1 -68 -18 -103 -53 -111 -204 -186 -376 -186 -94 0 -154 25 -190 78 -58
85 -30 185 67 237 74 39 89 53 89 80 0 61 -82 72 -178 24 -187 -93 -220 -329
-64 -457 81 -66 164 -92 293 -92 162 0 310 56 421 158 148 137 150 276 8 502
-195 310 -205 333 -204 450 1 85 23 150 81 237 100 151 307 292 481 328 63 13
76 13 106 1 44 -18 60 -48 51 -94 -10 -53 -28 -84 -91 -152 -72 -78 -205 -166
-323 -215 -88 -37 -131 -70 -131 -102 0 -8 12 -26 26 -40 22 -22 32 -25 67
-20 52 7 189 76 274 138 259 188 378 410 290 541 -45 66 -136 94 -252 77z"/>
<path d="M6289 3168 c-34 -32 -136 -168 -202 -269 -61 -93 -72 -100 -185 -115
-29 -4 -64 -15 -77 -26 -54 -42 -13 -103 66 -100 22 1 38 -1 36 -6 -16 -26
-123 -258 -143 -307 -36 -91 -64 -211 -70 -300 -5 -71 -3 -85 18 -124 13 -25
35 -53 49 -64 38 -27 113 -26 170 3 58 30 161 135 231 235 96 138 115 193 72
209 -27 10 -51 -12 -114 -103 -70 -103 -129 -171 -171 -201 -38 -27 -87 -29
-106 -4 -23 30 -10 133 32 254 36 105 179 406 212 447 20 25 208 85 320 103
78 13 93 22 93 61 0 61 -63 74 -201 43 -39 -9 -72 -14 -74 -12 -3 2 25 47 60
100 74 109 87 148 60 178 -24 26 -46 25 -76 -2z"/>
<path d="M1841 2704 c-69 -18 -112 -44 -185 -114 -149 -140 -260 -347 -284
-529 -14 -100 4 -171 54 -210 83 -66 196 -11 295 142 l39 60 0 -64 c0 -40 7
-79 19 -104 37 -83 134 -135 186 -101 50 33 41 80 -24 117 -50 28 -66 59 -65
128 2 71 60 249 115 349 33 59 40 79 35 105 -10 46 -9 58 1 92 31 97 -64 162
-186 129z m63 -155 c32 -25 32 -33 0 -72 -14 -17 -55 -89 -91 -160 -84 -168
-133 -245 -188 -296 -68 -63 -125 -50 -125 28 0 151 167 438 295 504 41 22 78
21 109 -4z"/>
<path d="M6748 2697 c-225 -95 -457 -452 -458 -705 0 -149 94 -210 228 -147
99 46 206 175 310 375 78 149 112 257 112 355 0 67 -3 78 -27 105 -39 43 -90
48 -165 17z m60 -139 c34 -34 3 -115 -88 -228 -62 -78 -71 -103 -44 -118 14
-8 14 -12 1 -43 -21 -50 -90 -137 -131 -167 -67 -47 -126 -27 -126 44 0 48 37
161 76 231 76 138 227 293 285 293 8 0 20 -5 27 -12z"/>
<path d="M3200 2648 c-75 -37 -214 -170 -279 -267 -204 -301 -195 -554 20
-569 33 -3 80 1 105 8 94 27 230 136 337 270 72 90 92 132 77 160 -20 38 -47
23 -129 -73 -126 -148 -233 -229 -318 -243 -38 -6 -45 -3 -73 24 -23 24 -30
39 -30 71 0 135 197 437 329 506 85 43 78 -35 -10 -132 -41 -45 -50 -82 -24
-103 35 -29 119 41 172 142 21 42 27 67 28 121 0 63 -2 71 -28 93 -40 35 -97
32 -177 -8z"/>
<path d="M7626 2645 c-83 -50 -207 -149 -320 -256 -96 -91 -98 -92 -76 -49 13
25 53 86 90 135 80 107 84 118 61 146 -72 89 -258 -161 -414 -556 -91 -229
-97 -285 -34 -285 17 0 37 4 44 8 6 4 43 62 81 129 38 67 91 152 116 188 50
69 208 240 237 255 15 9 16 6 7 -24 -14 -43 -4 -82 24 -97 93 -50 228 -9 358
108 61 56 75 88 47 112 -14 11 -18 10 -147 -61 -81 -45 -122 -55 -140 -33 -21
26 5 68 96 154 53 50 84 87 84 100 0 20 -32 61 -48 61 -5 0 -34 -16 -66 -35z"/>
<path d="M8240 2663 c-166 -42 -386 -282 -445 -487 -22 -74 -23 -192 -2 -232
94 -180 373 -120 628 135 99 100 131 150 112 180 -22 35 -44 23 -141 -76 -140
-141 -258 -213 -349 -213 -65 0 -126 50 -121 100 3 28 9 34 68 57 86 35 164
82 227 138 62 54 146 177 169 247 38 116 -25 182 -146 151z m27 -150 c19 -50
-129 -219 -240 -273 -37 -18 -70 -30 -74 -27 -10 11 89 165 137 215 91 92 161
126 177 85z"/>
<path d="M4291 2625 c-16 -14 -74 -85 -128 -158 -162 -220 -373 -422 -432
-415 -76 9 2 148 217 387 54 61 72 88 72 110 0 32 -27 61 -57 61 -49 0 -150
-103 -265 -270 -109 -158 -158 -270 -158 -363 0 -40 5 -53 29 -78 73 -73 212
0 400 210 44 50 81 87 81 83 -1 -24 -163 -340 -182 -353 -13 -9 -79 -50 -148
-90 -162 -95 -260 -170 -351 -267 -149 -158 -187 -325 -98 -427 38 -42 87 -59
154 -52 176 18 341 227 538 682 l43 100 96 65 c167 113 311 259 368 371 24 46
26 104 5 113 -26 10 -42 -4 -81 -67 -44 -71 -176 -208 -248 -257 -46 -31 -48
-32 -41 -9 12 39 112 235 178 349 120 208 135 251 99 283 -26 24 -56 21 -91
-8z m-559 -1118 c-109 -226 -166 -308 -244 -348 -50 -25 -74 -24 -104 6 -22
23 -25 31 -19 68 16 96 91 194 235 308 80 63 201 142 207 135 2 -2 -32 -78
-75 -169z"/>
<path d="M2716 2605 c-56 -20 -126 -71 -255 -186 -119 -107 -121 -106 -41 19
53 82 61 119 32 145 -59 54 -124 -29 -312 -398 -125 -247 -143 -320 -85 -347
36 -16 70 3 103 57 120 202 231 342 319 404 l33 22 -39 -73 c-66 -122 -94
-218 -95 -328 -1 -85 2 -101 28 -153 35 -73 81 -101 124 -76 37 21 38 43 5
108 -69 137 -12 347 152 561 132 170 149 212 103 244 -26 19 -23 19 -72 1z"/>
<path d="M5881 1192 c-8 -3 -37 -22 -65 -43 -28 -22 -59 -39 -68 -39 -10 0
-52 9 -93 21 -83 22 -130 22 -130 -1 0 -10 25 -23 73 -39 40 -13 69 -28 65
-32 -5 -5 -49 -26 -98 -47 -69 -30 -91 -44 -93 -61 -2 -14 2 -21 13 -21 19 0
176 60 233 89 l41 21 95 -35 c105 -38 129 -37 124 4 -3 22 -12 29 -70 50 l-68
23 39 28 c46 34 53 43 45 63 -7 18 -24 26 -43 19z"/>
<path d="M8621 1158 c-81 -97 -205 -239 -235 -267 -38 -37 -45 -61 -22 -80 15
-13 106 -6 411 30 l169 21 26 -31 c14 -17 34 -31 46 -31 23 0 44 18 44 37 0
34 -201 213 -239 213 -34 0 -25 -32 24 -80 25 -24 45 -47 45 -51 0 -3 -78 -14
-172 -23 -95 -9 -192 -19 -215 -22 -24 -3 -43 -4 -43 -2 0 2 44 48 98 103 111
115 143 165 123 189 -19 22 -38 20 -60 -6z"/>
<path d="M6790 1065 c-18 -47 -53 -119 -77 -160 -24 -42 -40 -80 -37 -89 12
-31 41 -16 82 42 l41 59 122 13 c102 10 123 10 130 -1 33 -52 -41 -469 -91
-514 -17 -15 -23 -15 -80 1 -114 32 -103 -25 12 -66 75 -26 94 -25 122 5 47
51 97 268 111 487 6 93 5 111 -10 134 -17 27 -18 27 -104 21 -47 -4 -107 -10
-134 -13 l-47 -7 25 58 c32 72 30 109 -6 113 -24 3 -28 -3 -59 -83z"/>
<path d="M6504 1132 c-6 -4 -23 -41 -38 -82 -38 -106 -39 -107 -71 -90 -22 12
-28 12 -40 -1 -12 -12 -13 -53 -7 -268 6 -226 9 -255 24 -265 15 -9 23 -6 43
17 21 22 35 27 73 27 26 0 57 3 69 6 18 5 22 1 25 -22 3 -32 30 -43 53 -24 22
19 22 512 0 530 -10 8 -37 11 -79 8 l-64 -4 29 59 c17 33 29 70 27 85 -3 27
-24 38 -44 24z m78 -300 c-2 -37 -4 -68 -5 -69 -1 0 -39 -4 -84 -8 l-83 -8 0
76 0 75 78 9 c42 5 81 5 87 1 5 -5 8 -39 7 -76z m-4 -297 c-2 -1 -37 -5 -79
-8 l-76 -7 -7 77 c-4 42 -3 79 1 84 4 4 42 11 83 16 l75 8 3 -84 c2 -46 2 -85
0 -86z"/>
<path d="M7650 1118 c-252 -20 -280 -27 -266 -64 6 -15 20 -16 151 -9 l145 7
0 -170 0 -170 -185 -7 c-143 -6 -187 -11 -197 -22 -8 -11 -9 -19 -1 -31 9 -15
27 -17 124 -14 63 1 147 5 186 8 l72 6 3 -164 3 -163 33 -3 32 -3 0 165 c0 91
3 166 8 166 83 2 367 22 373 26 14 8 11 54 -3 55 -17 2 1 2 -200 -6 l-178 -7
0 170 0 170 78 7 c199 16 192 14 192 46 l0 29 -62 -1 c-35 -1 -173 -10 -308
-21z"/>
<path d="M4787 1104 c-3 -3 -59 -7 -124 -8 l-118 -2 -7 -195 c-8 -258 -36
-357 -129 -463 -41 -46 -48 -78 -17 -84 23 -4 110 88 146 155 16 32 37 83 46
113 17 60 36 238 36 338 0 34 1 62 3 62 45 9 231 24 238 19 8 -4 9 -98 4 -312
l-8 -305 25 -24 c43 -44 231 -45 278 -3 17 15 20 30 19 99 -1 102 -9 131 -34
131 -18 0 -21 -9 -26 -79 -8 -99 -19 -110 -100 -111 -46 0 -64 4 -73 17 -10
14 -12 84 -8 323 4 237 2 308 -8 320 -9 10 -31 15 -75 15 -34 0 -64 -3 -68 -6z"/>
<path d="M7943 998 c-5 -7 -18 -33 -27 -58 -10 -25 -30 -67 -46 -95 -29 -53
-30 -75 0 -75 37 0 145 166 138 213 -4 26 -48 36 -65 15z"/>
<path d="M5672 941 l-31 -49 -118 -7 c-167 -9 -197 -16 -201 -43 -2 -12 3 -24
11 -28 8 -3 69 -1 136 3 66 5 121 5 121 2 0 -14 -153 -169 -201 -205 -50 -36
-61 -65 -28 -72 9 -2 50 22 90 53 l74 55 3 -109 c3 -117 12 -139 52 -126 20 6
21 12 19 121 -1 63 -1 116 2 118 2 2 36 6 74 8 l70 3 5 -175 5 -175 28 -3 27
-3 0 180 0 180 43 6 c23 4 65 5 92 3 l50 -3 -4 -85 c-2 -47 -7 -90 -12 -96 -6
-7 -27 -10 -54 -6 -28 3 -45 1 -45 -6 0 -17 49 -51 88 -61 73 -21 92 19 92
189 0 91 -3 120 -15 130 -11 9 -41 10 -120 3 -58 -5 -108 -7 -111 -4 -2 2 -4
20 -4 38 0 32 -2 34 -27 31 -24 -3 -28 -8 -31 -39 -3 -34 -6 -37 -40 -43 -20
-3 -54 -6 -75 -6 l-38 0 42 54 c50 64 34 60 309 77 196 12 230 18 230 43 0 32
-23 35 -215 21 -257 -19 -235 -21 -222 14 13 35 4 61 -22 61 -12 0 -30 -17
-49 -49z"/>
<path d="M7430 957 c0 -8 17 -54 39 -103 36 -83 40 -89 67 -89 24 0 30 5 32
28 3 28 -39 109 -81 155 -22 24 -57 30 -57 9z"/>
<path d="M4647 863 c-16 -16 -2 -37 68 -107 55 -54 81 -73 93 -69 19 7 32 23
32 40 0 16 -55 69 -114 109 -51 34 -67 40 -79 27z"/>
<path d="M8670 714 c-123 -8 -196 -10 -198 -4 -5 15 -59 12 -65 -2 -4 -13 38
-341 48 -365 7 -21 56 -16 62 6 6 24 62 31 260 31 190 0 230 13 188 60 -13 15
-13 28 5 123 26 145 16 169 -68 166 -20 -1 -125 -8 -232 -15z m235 -53 c7 -12
-21 -201 -32 -212 -4 -4 -87 -9 -183 -10 l-174 -3 -7 34 c-4 19 -11 65 -14
102 -6 54 -4 68 6 69 37 2 376 26 386 28 6 0 14 -3 18 -8z"/>
</g>
</svg>
